<svg width="500" height="500" viewBox="0 0 500 500" fill="none" xmlns="http://www.w3.org/2000/svg">
<path d="M178.545 114.318C171.425 129.446 182.917 160.237 187.032 174.347C191.824 190.777 198.588 205.421 207.247 220.075C226.633 252.882 254.438 275.841 283.119 299.959C300.061 314.206 348.111 336.265 366.089 313.384C369.512 309.028 382.233 296.429 380.903 290.443C380.88 290.338 377.201 290.717 376.788 290.649C374.599 290.284 372.372 289.483 370.255 288.848C364.834 287.222 359.788 283.785 354.464 281.698C320.079 268.223 298.565 237.091 276.895 209.479C254.043 180.361 233.113 154.001 225.302 116.684C222.671 104.115 224.839 92.5391 224.839 80.0601C224.839 79.1921 206.57 87.9966 204.47 88.8561C196.129 92.2682 174.841 106.868 174.841 118.022" stroke="white" stroke-width="3" stroke-linecap="round"/>
<path d="M222.062 199.5C215.534 218.358 199.675 237.926 188.215 254.23C170.039 280.091 154.923 307.432 138.783 334.577C132.249 345.566 126.69 358.429 118.876 368.475C114.914 373.569 125.441 357.311 129.473 352.272" stroke="white" stroke-width="3" stroke-linecap="round"/>
<path d="M227.617 189.315C223.489 193.959 254.223 213.554 259.098 218.429C260.548 219.88 278.725 236.347 278.027 237.976C266.557 264.738 247.898 290.432 232.967 315.442C216.582 342.887 199.982 371.545 189.244 401.807C186.642 409.141 182.089 422.542 172.527 419.81C158.953 415.932 147.951 403.668 137.034 395.48C132.534 392.104 121.147 386.418 118.568 380.974C116.129 375.826 129.147 368.234 132.045 366.366C137.032 363.152 138.374 363.72 144.287 367.6C153.496 373.644 162.077 381.172 169.852 388.947C173.89 392.986 187.086 401.042 188.73 405.973" stroke="white" stroke-width="3" stroke-linecap="round"/>
<path d="M141.509 362.457C142.892 355.545 152.069 346.566 155.552 340.595C160.778 331.636 166.387 322.801 171.344 313.693C182.705 292.815 196.818 272.601 210.025 252.79C221.145 236.11 234.479 219.108 243.357 201.352" stroke="white" stroke-width="3" stroke-linecap="round"/>
</svg>
