<svg width="500" height="500" viewBox="0 0 500 500" fill="none" xmlns="http://www.w3.org/2000/svg">
<rect width="500" height="500" fill="#050514"/>
<path d="M197.52 273.669C191.622 272.489 192.406 263.589 193.409 259.815C194.522 255.623 201.682 233.452 209.542 242.117C213.593 246.584 211.834 254.494 209.006 258.966C201.222 271.276 191.943 261.089 197.386 249.67C197.857 248.682 204.217 238.016 206.816 241.402C209.48 244.874 203.66 255.578 202.347 259.189" stroke="white" stroke-width="3" stroke-linecap="round"/>
<path d="M343.122 255.972C342.995 253.811 341.691 251.754 340.664 249.894C338.659 246.26 337.909 230.756 344.865 236.263C348.006 238.749 355.678 247.331 353.133 252.262C348.847 260.567 327.245 236.542 344.955 235.861C353.25 235.542 359.085 242.764 361.088 250.162C362.605 255.764 359.328 258.868 354.206 255.435C352.177 254.076 339.756 239.687 344.642 237.38C348.032 235.779 351.795 243.226 352.776 245.514" stroke="white" stroke-width="3" stroke-linecap="round"/>
<path d="M149.254 185.182C149.254 197.496 173.476 190.086 178.124 189.07C203.043 183.621 219.625 170.945 224.871 145.764" stroke="white" stroke-width="3" stroke-linecap="round"/>
<path d="M301.292 131.285C301.292 126.911 297.347 134.702 301.381 139.731C318.621 161.222 342.327 167.911 368.06 161.049" stroke="white" stroke-width="3" stroke-linecap="round"/>
<path d="M142.819 271.256C141.735 272.46 139.824 274.88 139.601 276.44C138.839 281.777 143.61 288.833 146.215 292.707C147.922 295.244 149.697 297.772 151.846 299.947C169.449 317.762 147.366 294.243 162.125 305.042" stroke="white" stroke-width="3" stroke-linecap="round"/>
<path d="M413.108 242.296C410.694 240.15 416.615 251.02 416.773 252.173C418.411 264.135 410.936 274.257 402.65 281.713" stroke="white" stroke-width="3" stroke-linecap="round"/>
<path d="M238.613 360.822C238.613 362.112 238.351 365.081 239.909 362.565C242.908 357.72 256.577 341.152 259.885 354.386C260.396 356.43 261.655 369.623 262.12 369.313C267.774 365.544 268.941 357.328 274.991 353.761C280.818 350.324 282.462 351.988 285.314 357.157C289.235 364.263 290.963 359.49 295.37 354.878C299.622 350.428 305.684 345.239 310.207 352.152C312.366 355.451 312.282 366.521 316.643 365.649" stroke="white" stroke-width="3" stroke-linecap="round"/>
<path d="M100.988 162.658C106.12 165.978 102.076 180.824 101.882 185.048C101.202 199.879 99.9517 217.357 105.815 231.526C111.295 244.77 116.272 202.312 116.272 203.684" stroke="white" stroke-width="3" stroke-linecap="round"/>
<path d="M84.0953 217.359C83.6418 225.974 84.884 234.504 86.1957 243.011C86.5519 245.322 87.4126 265.572 93.3909 256.061C97.8548 248.959 97.7573 238.407 98.575 230.23" stroke="white" stroke-width="3" stroke-linecap="round"/>
</svg>
