<svg width="500" height="500" viewBox="0 0 500 500" fill="none" xmlns="http://www.w3.org/2000/svg">
<path d="M149.254 185.182C149.254 197.496 173.476 190.086 178.124 189.07C203.043 183.621 219.625 170.945 224.871 145.764" stroke="white" stroke-width="3" stroke-linecap="round"/>
<path d="M301.292 131.285C301.292 126.911 297.347 134.702 301.381 139.731C318.621 161.222 342.327 167.911 368.06 161.049" stroke="white" stroke-width="3" stroke-linecap="round"/>
<path d="M142.819 271.256C141.735 272.46 139.824 274.88 139.601 276.44C138.839 281.777 143.61 288.833 146.215 292.707C147.922 295.244 149.697 297.772 151.846 299.947C169.449 317.762 147.366 294.243 162.125 305.042" stroke="white" stroke-width="3" stroke-linecap="round"/>
<path d="M413.108 242.296C410.694 240.15 416.615 251.02 416.773 252.173C418.411 264.135 410.936 274.257 402.65 281.713" stroke="white" stroke-width="3" stroke-linecap="round"/>
<path d="M238.613 360.822C238.613 362.112 238.351 365.081 239.909 362.565C242.908 357.72 256.577 341.152 259.885 354.386C260.396 356.43 261.655 369.623 262.12 369.313C267.774 365.544 268.941 357.328 274.991 353.761C280.818 350.324 282.462 351.988 285.314 357.157C289.235 364.263 290.963 359.49 295.37 354.878C299.622 350.428 305.684 345.239 310.207 352.152C312.366 355.451 312.282 366.521 316.643 365.649" stroke="white" stroke-width="3" stroke-linecap="round"/>
<path d="M100.988 162.658C106.12 165.978 102.076 180.824 101.882 185.048C101.202 199.879 99.9517 217.357 105.815 231.526C111.295 244.77 116.272 202.312 116.272 203.684" stroke="white" stroke-width="3" stroke-linecap="round"/>
<path d="M84.0953 217.359C83.6418 225.974 84.884 234.504 86.1957 243.011C86.5519 245.322 87.4126 265.572 93.3909 256.061C97.8548 248.959 97.7573 238.407 98.575 230.23" stroke="white" stroke-width="3" stroke-linecap="round"/>
<path d="M195.195 242.64C193.972 242.395 191.885 239.161 192.227 240.361C194.051 246.742 209.174 249.612 214.332 251.235C221.201 253.396 227.006 255.952 233.231 259.212C233.451 259.328 222.58 266.943 220.742 268.234C216.393 271.291 210.244 275.548 207.09 279.963C205.007 282.88 213.171 276.157 216.089 274.075C221.745 270.039 227.786 266.287 233.943 263.059C234.2 262.924 239.411 260.649 238.62 261.539C235.256 265.323 229.226 267.921 225.063 270.609C219.156 274.422 213.014 277.916 207.494 282.29C205.498 283.871 204.054 285.065 206.734 282.385" stroke="white" stroke-width="3" stroke-linecap="round"/>
<path d="M347.337 223.836C343.831 224.713 339.786 228.691 336.748 230.484C331.187 233.765 325.749 236.932 321.553 241.928C315.848 248.719 335.932 231.52 343.443 226.804C351.332 221.851 328.706 238.203 321.505 244.112C321.132 244.419 312.047 250.518 314.81 251.9C323.458 256.224 333.37 255.528 341.14 261.871C342.357 262.864 348.97 266.63 347.574 265.718C342.927 262.679 336.721 261.787 331.596 259.758C327.371 258.086 323.191 255.991 318.846 254.654C316.632 253.972 322.933 257.301 323.595 257.598C332.145 261.435 342.666 264.816 349.901 270.846" stroke="white" stroke-width="3" stroke-linecap="round"/>
</svg>
