<svg width="500" height="500" viewBox="0 0 500 500" fill="none" xmlns="http://www.w3.org/2000/svg">
<path d="M82.04 277.153C67.0751 282.288 79.5697 274.592 86.494 269.997C114.667 251.301 145.755 233.737 177.11 220.971C241.956 194.569 302.883 158.266 369.784 137.459C377.139 135.172 390.561 124.457 397.199 131.978C404.471 140.217 404.995 153.961 406.184 164.18C407.921 179.105 407.843 194.295 411.099 209.019C411.4 210.381 417.069 225.851 413.787 220.971" stroke="white" stroke-width="3" stroke-linecap="round"/>
<path d="M75 281.87C75.9453 299.749 77.02 317.739 77.8214 335.688C78.195 344.057 79.2251 356.43 85.9804 362.482C92.4055 368.239 116.253 353.524 122.505 350.717C148.629 338.989 176.103 329.999 201.732 317.242C253.65 291.401 306.778 271.46 360.948 251.128C382.728 242.953 403.062 231.765 425 224.485" stroke="white" stroke-width="3" stroke-linecap="round"/>
<path d="M183.738 67.4308C183.738 3.75885 197.919 194.239 212.314 256.145C228.099 324.029 245.578 389.297 251.699 458.951" stroke="white" stroke-width="3" stroke-linecap="round"/>
<path d="M179.903 70.6014C178.928 69.5166 176.467 66.0113 177.022 64.4895C179.062 58.9041 185.821 55.4758 190.703 53.5813C199.592 50.1322 283.933 20.3157 285.492 24.3798C289.969 36.0432 291.733 51.3112 292.566 63.6406C296.533 122.389 303.483 180.709 308.364 239.402C311.394 275.839 317.997 310.351 327.55 345.554C332.754 364.729 341.062 382.968 345.763 402.26C347.932 411.16 353.641 421.471 353.641 430.697C353.641 444.802 328.658 445.888 319.418 449.203C303.426 454.941 289.485 465.284 273.802 471.571C268.3 473.777 259.103 479.199 255.378 473.226" stroke="white" stroke-width="3" stroke-linecap="round"/>
<path d="M216.518 238.519C216.034 243 209.185 258.143 222.435 255.006C250.627 248.33 267.566 215.938 289.807 199.656C290.984 198.795 289.56 202.712 290.062 204.105C291.479 208.041 299.871 211.247 303.04 213.853C312.833 221.91 322.036 229.041 332.877 235.64C335.437 237.198 371.817 255.822 368.122 262.66C365.935 266.709 359.972 262.921 357.116 262.333C346.609 260.172 338.307 266.039 332.687 274.764C316.93 299.223 340.118 344.528 367.295 318.729C383.97 302.901 397.361 275.463 378.238 255.464C363.943 240.514 335.112 241.996 326.834 262.333C319.425 280.534 325.208 326.25 352.281 324.356C383.682 322.159 386.785 264.86 375.884 244.341C364.395 222.718 336.906 218.26 315.255 216.405C301.466 215.223 299.804 211.918 298.968 197.301" stroke="white" stroke-width="3" stroke-linecap="round"/>
<path d="M285.68 187.107C282.241 187.354 278.879 188.727 275.485 190.505" stroke="white" stroke-width="3" stroke-linecap="round"/>
<path d="M265.291 197.301C287.409 203.828 308.222 214.202 328.694 224.934C341.016 231.394 352.745 238.94 364.032 247.054C368.982 250.612 382.573 257.029 375.36 258.466" stroke="white" stroke-width="3" stroke-linecap="round"/>
<path d="M266.787 197.513C251.026 195.501 239.305 208.135 227.718 220.35C218.334 230.243 213.037 239.572 212.066 253.463C211.746 258.029 209.321 268.165 212.687 272.366C216.031 276.54 221.985 278.307 226.662 280.232C247.476 288.798 267.618 298.635 288.03 308.143C306.022 316.523 323.572 325.687 341.447 334.278C351.943 339.322 344.922 335.094 338.962 332.121C301.584 313.478 264.666 298.072 225.979 282.833C209.01 276.148 239.632 287.69 242.936 288.922C264.759 297.062 287.324 303.674 308.341 313.852C310.664 314.977 332.31 324.456 328.279 326.285C323.724 328.353 316.686 322.025 313.745 319.688" stroke="white" stroke-width="3" stroke-linecap="round"/>
<path d="M189.634 183.709C175.051 190.816 167.078 203.483 171.25 219.686C172.523 224.628 170.389 215.11 170.892 212.577C173.251 200.713 185.489 191.36 193.932 183.709" stroke="white" stroke-width="3" stroke-linecap="round"/>
</svg>
