<svg width="500" height="500" viewBox="0 0 500 500" fill="none" xmlns="http://www.w3.org/2000/svg">
<path d="M219.29 171.773C215.322 175.245 216.101 179.48 217.813 186.704C225.917 220.897 237.236 254.691 244.832 288.872C247.734 301.931 253.947 316.947 254.731 330.275C255.469 342.821 297.857 341.582 303.737 339.902C304.814 339.594 309.547 339.347 309.863 338.479C312.568 331.039 308.706 319.259 306.855 312.008C299.483 283.135 292.844 254.478 287.001 225.263C283.578 208.148 281.056 190.898 267.584 178.773C258.784 170.853 238.907 166.85 227.384 166.85C224.517 166.85 219.661 168.869 216.938 167.78C216.53 167.617 223.657 164.022 224.431 163.678C235.474 158.77 246.939 155.636 258.451 151.919C268.07 148.812 275.483 148.145 285.469 148.145C292.015 148.145 311.252 150.519 316.262 155.528C324.588 163.855 327.357 182.925 330.318 194.088C337.113 219.697 338.84 246.395 345.797 272.081C350.163 288.201 355.535 306.393 356.134 323.165C356.444 331.862 349.786 335.903 342.187 338.753C335.518 341.254 316.452 350.521 308.878 347.996" stroke="white" stroke-width="3" stroke-linecap="round"/>
<path d="M195.663 233.795C205.894 234.932 218.226 246.406 227.823 250.75C237.787 255.26 250.468 260.068 259.162 266.83C264.879 271.276 220.275 294.804 220.275 302.71" stroke="white" stroke-width="3" stroke-linecap="round"/>
<path d="M180.895 209.183C180.574 206.293 180.234 206.488 181.442 209.894C185.008 219.944 188.279 230.103 191.725 240.194C197.417 256.865 203.116 273.705 206.984 290.896C210.197 305.177 214.742 319.485 220.275 333.01C223.192 340.142 215.905 342.654 210.649 345.808C182.863 362.48 151.26 373.315 121.716 386.446C110.112 391.604 99.5376 397.591 88.4078 403.62C85.0129 405.459 75.1906 413.079 71.0698 410.457C60.0816 403.464 54.0352 386.058 49.958 374.577C42.4223 353.358 32.6791 332.921 24.3613 312.008C21.6852 305.279 16.044 292.518 20.9156 285.481C26.5569 277.332 33.4256 274.959 42.2462 269.62C62.7476 257.211 80.072 241.952 103.449 234.561C117.742 230.042 132.184 220.494 146.657 217.278C150.509 216.422 174.851 199.064 176.957 203.276" stroke="white" stroke-width="3" stroke-linecap="round"/>
<path d="M344.32 209.183C341.101 212.805 337.429 221.083 337.429 225.919" stroke="white" stroke-width="3" stroke-linecap="round"/>
<path d="M333.491 156.021C333.491 150.089 334.933 158.785 335.241 160.943C336.498 169.739 338.934 177.564 342.406 185.665C347.438 197.407 350.356 210.429 354.165 222.528C355.784 227.67 369.674 272.312 371.886 271.206" stroke="white" stroke-width="3" stroke-linecap="round"/>
<path d="M333.491 149.129C334.117 142.874 345.489 140.861 350.118 138.737C358.621 134.837 368.265 129.96 375.824 124.462C387.801 115.751 400.214 108.104 414.766 104.061C424.779 101.28 439.1 83.763 449.661 90.5519C462.638 98.8946 467.291 118.537 470.882 132.502C476.063 152.65 478.324 175.178 480.125 195.892C481.743 214.498 460.684 224.005 447.254 231.826C420.045 247.674 390.192 256.638 363.026 270.221" stroke="white" stroke-width="3" stroke-linecap="round"/>
<path d="M338.414 238.718C343.443 241.085 349.731 241.473 355.15 243.64" stroke="white" stroke-width="3" stroke-linecap="round"/>
</svg>
