<svg width="500" height="500" viewBox="0 0 500 500" fill="none" xmlns="http://www.w3.org/2000/svg">
<path d="M154.911 147.295C144.832 167.453 137.299 188.91 128.877 209.776C116.882 239.497 124.774 204.057 128.134 194.156C137.154 167.571 158.885 153.989 183.921 153.989C198.56 153.989 235.826 154.686 246.898 164.651C259.837 176.295 261.38 209.049 263.758 225.396C267.914 253.97 261.907 256.486 239.708 274.985C222.12 289.642 199.184 306.256 175.491 305.73C150.602 305.177 130.722 291.907 130.365 266.555C129.979 239.177 119.351 220.111 126.398 191.924C128.576 183.21 129.548 172.043 134.828 164.651C142.298 154.193 165.457 151.565 176.234 148.038C195.208 141.83 216.054 132.666 236.485 132.666C258.95 132.666 281.539 136.137 303.925 136.137C340.238 136.137 356.657 225.552 349.546 250.439C344.385 268.504 322.793 282.413 311.115 298.54C296.768 318.353 235.354 307.67 213.426 305.234C203.689 304.152 193.787 305.73 183.921 305.73C170.856 305.73 210.124 308.526 223.096 306.97C237.814 305.203 326.736 300.014 326.736 278.952" stroke="white" stroke-width="3" stroke-linecap="round"/>
<path d="M243.439 168.319C308.896 133.665 375.708 110.296 444.893 85.8776C464.519 78.9507 480.698 154.675 479.977 170.55C477.69 220.846 420.427 209.431 383.031 218.527C349.48 226.688 297.47 231.227 267.986 250.884" stroke="white" stroke-width="3" stroke-linecap="round"/>
<path d="M174.263 139.309C160.207 125.253 149.983 105.509 137.196 90.2166C119.499 69.0535 100.318 49.4707 82.7723 28.2309C58.1748 -1.54503 47.9187 48.6122 42.1097 67.4059C33.5046 95.246 6.69866 120.638 28.101 146.004C41.8535 162.303 57.6677 178.437 73.8464 192.369C89.9724 206.255 112.864 219.068 131.865 228.569" stroke="white" stroke-width="3" stroke-linecap="round"/>
<path d="M138.559 266.504C116.645 290.854 119.533 343.954 110.542 374.359C103.18 399.254 91.6982 427.579 91.6982 453.825C91.6982 473.512 153.915 484.156 172.776 481.222C179.218 480.22 185.712 482.625 188.892 475.272C192.046 467.978 189.839 456.496 190.379 448.742C192.222 422.339 192.598 395.017 196.95 368.904C198.272 360.974 220.505 269.066 236.745 279.893" stroke="white" stroke-width="3" stroke-linecap="round"/>
</svg>
