<svg width="500" height="500" viewBox="0 0 500 500" fill="none" xmlns="http://www.w3.org/2000/svg">
<path d="M150.695 157.548C147.579 147.42 143.938 131.442 151.356 152.259C161.738 181.396 172.927 211.979 180.444 242.048C189.939 280.027 203.73 316.627 213.679 354.433C217.056 367.265 234.836 365.205 245.351 367.475C266.926 372.131 282.679 374.026 304.369 374.026C315.092 374.026 351.59 386.164 352.929 367.415C353.89 353.958 344.857 337.875 339.166 326.307C331.516 310.755 325.51 294.11 318.853 278.107C311.081 259.424 306.186 238.933 300.402 219.57C295.559 203.356 286.637 188.876 282.012 172.513C277.392 156.165 265.414 125.743 245.411 123.171C220.857 120.014 197.156 123.903 172.932 127.017C169.577 127.449 152.661 126.137 163.676 128.34" stroke="white" stroke-width="3" stroke-linecap="round"/>
<path d="M160.431 125.094C152.536 125.094 144.469 124.728 149.853 135.912C154.061 144.65 155.022 151.22 155.022 160.793" stroke="white" stroke-width="3" stroke-linecap="round"/>
<path d="M198.294 125.094C198.294 132.462 204.516 141.868 206.948 148.894C210.968 160.506 214.375 172.368 216.924 184.352C222.465 210.392 228.977 241.299 239.943 265.667C250.712 289.598 258.237 315.48 266.927 340.31C270.53 350.604 282.673 367.701 282.673 378.233" stroke="white" stroke-width="3" stroke-linecap="round"/>
<path d="M177.74 215.964C175.264 215.819 173.293 214.787 171.249 213.56C170.11 212.877 182.255 214.979 184.231 215.363C200.907 218.606 222.49 221.373 239.582 221.373C248.108 221.373 299.098 216.755 301.064 224.619" stroke="white" stroke-width="3" stroke-linecap="round"/>
<path d="M215.602 314.407C211.616 313.964 205.671 308.551 203.222 305.753C199.31 301.282 192.723 300.344 203.162 300.344C224.043 300.344 244.526 301.728 265.365 301.426C271.766 301.333 333.517 296.272 333.517 304.671" stroke="white" stroke-width="3" stroke-linecap="round"/>
</svg>
