<svg width="500" height="500" viewBox="0 0 500 500" fill="none" xmlns="http://www.w3.org/2000/svg">
<g clip-path="url(#clip0_3_62)">
<path d="M31.8074 17.1186C30.0644 20.6793 25.9152 23.5159 26.816 28.0181C28.0569 34.2201 28.3447 40.4411 30.001 46.6729C31.3765 51.8479 30.6378 59.3945 33.0362 64.2549C37.5391 73.3804 43.9719 81.6618 49.8 90.0532C77.6771 130.191 115.203 162.396 145.684 200.456C188.777 254.264 234.412 305.407 279.634 357.403" stroke="white" stroke-width="3" stroke-linecap="round"/>
<path d="M31.6063 17.6187C38.8893 15.592 47.8454 21.6203 55.1216 24.2156C58.9386 25.577 62.6954 26.5111 66.2864 28.3668C72.1879 31.4165 76.5442 38.8146 81.4879 43.4443C101.031 61.7456 117.897 82.5166 135.667 102.443C150.578 119.164 165.443 135.765 180.524 152.319C194.373 167.521 206.742 184.348 219.801 200.214C232.793 215.998 245.282 232.34 258.764 247.745C274.274 265.468 292.481 280.799 307.715 298.782C316.834 309.547 326.242 320.204 335.571 330.524" stroke="white" stroke-width="3" stroke-linecap="round"/>
<path d="M278.447 355.386C283.733 364.553 288.549 367.573 298.621 367.704C309.74 367.848 318.886 366.269 327.741 358.984C333.856 353.952 338.12 346.837 337.95 338.733C337.882 335.487 341.596 330.555 337.201 331.778" stroke="white" stroke-width="3" stroke-linecap="round"/>
<path d="M287.107 369.627C295.313 368.164 304.25 372.044 312.159 368.111C320.117 364.155 324.226 359.264 328.114 351.29C330.648 346.093 334.526 338.334 334.823 332.44" stroke="white" stroke-width="3" stroke-linecap="round"/>
<path d="M61.9856 102.24C67.392 105.293 75.7324 99.2784 80.3236 96.7101C85.4016 93.8696 90.8963 89.0826 93.9711 84.0413C94.6375 82.9486 102.716 68.1902 101.095 67.8747" stroke="white" stroke-width="3" stroke-linecap="round"/>
<path d="M98.7323 148.372C102.303 152.702 118.731 142.836 122.549 140.369C128.044 136.818 132.222 130.851 133.952 124.577C135.271 119.792 138.036 115.613 139.558 110.967" stroke="white" stroke-width="3" stroke-linecap="round"/>
<path d="M32.1343 64.0095C39.1211 71.7377 53.9264 66.5979 61.4608 62.2529C65.8561 59.7182 76.559 53.6058 76.602 47.3657C76.6273 43.6956 79.6041 39.7085 75.034 37.1282" stroke="white" stroke-width="3" stroke-linecap="round"/>
<path d="M188.435 249.787C190.361 249.453 192.419 250.103 194.411 249.785C200.837 248.759 206.454 245.774 212.193 242.939C218.279 239.932 222.437 235.025 225.866 229.338C228.362 225.198 228.917 218.935 230.207 214.254" stroke="white" stroke-width="3" stroke-linecap="round"/>
<path d="M251.859 327.348C260.609 324.913 268.053 322.796 274.637 316.123C279.361 311.335 284.757 304.787 287.58 298.622C289.271 294.929 290.6 290.913 291.665 287.048C292.018 285.771 293.782 282.806 292.505 283.162" stroke="white" stroke-width="3" stroke-linecap="round"/>
<path d="M129.129 135.822L105.766 150.938L187.518 249.668L209.998 246.859L222.966 234.635L231.219 211.66L142.312 108.891L129.129 135.822Z" fill="white" stroke="white"/>
<path d="M235.251 208.553C235.584 209.749 237.092 208.554 237.921 208.412C246.394 206.963 255.465 206.679 263.971 206.131C272.195 205.602 283.637 203.694 292.059 205.767C295.104 206.516 298.502 209.735 300.693 211.908C304.34 215.525 309.06 220.064 305.342 225.368C302.409 229.552 298.474 231.796 294.095 234.181C293.396 234.561 286.95 236.959 289.786 237.901C295.266 239.722 301.643 240.054 307.308 241.494C327.164 246.54 346.386 251.788 356.61 271.244C360.602 278.839 357.672 282.287 350.744 286.275C348.114 287.789 344.939 289.665 341.911 290.238C341.795 290.26 339.731 290.568 340.151 289.863C340.873 288.65 345.193 290 346.175 290.143C351.574 290.93 357.074 291.235 362.443 292.203C369.369 293.451 375.636 297.09 381.69 300.509C386.057 302.974 390.665 305.461 393.641 309.641C398.536 316.519 393.272 319.43 389.529 324.485C388.376 326.042 388.946 324.985 390.175 324.643C391.185 324.362 388.592 325.686 387.258 325.116" stroke="white" stroke-width="3" stroke-linecap="round"/>
<path d="M288.729 377.601C289.295 375.014 288.45 380.438 288.437 380.542C287 391.751 286.551 402.944 285.68 414.185C284.913 424.079 285.053 433.895 285.992 443.775C286.587 450.046 286.84 457.948 290.151 463.524C296.306 473.888 308.314 444.681 309.445 442.31C313.467 433.88 316.98 425.137 321.402 416.909C322 415.797 323.285 411.845 324.496 414.298C331.48 428.452 338.075 442.827 346.888 456.016C352.348 464.188 357.916 473.673 365.772 479.854C369.353 482.672 370.424 478.806 370.373 475.694C370.201 465.418 368.668 454.811 367.479 444.603C366.322 434.665 364.07 424.418 365.448 414.381C365.943 410.781 367.284 410.764 370.325 412.158C376.128 414.819 380.805 419.168 385.767 423.085C389.978 426.41 424.943 448.672 425.17 434.439C425.305 426.009 420 417.031 415.924 410.139C410.084 400.266 404.335 390.288 399.222 380.011C396.294 374.126 409.358 378.904 411.131 379.256C420.398 381.097 427.986 379.664 436.964 377.412C443.802 375.696 453.141 374.938 459.191 371.001C462.73 368.698 457.546 365.779 455.77 364.388C449.556 359.519 442.349 357.254 435.454 353.594C432.405 351.975 429.024 349.887 431.709 346.356C435.6 341.239 442.389 337.737 447.158 333.438C453.044 328.133 458.115 322.569 462.559 316.018C465.735 311.336 458.27 312.778 455.535 313.23C446.377 314.744 437.061 316.132 428.028 318.25C424.533 319.069 393.287 324.27 394.684 327.454" stroke="white" stroke-width="3" stroke-linecap="round"/>
<path d="M60.6028 103.197L37.7049 67.353L60.7622 63.5214L73.3755 53.119L79.0562 39.4764L102.128 66.6568L96.4471 80.2994L84.9465 94.7L60.6028 103.197Z" fill="white" stroke="white"/>
<path d="M239.691 310.37C241.689 309.814 243.787 309.693 245.746 308.924C248.86 307.702 251.735 306.222 254.632 304.557C261.462 300.629 268.454 295.506 272.507 288.599C273.954 286.133 276.069 284.175 277.164 281.498C277.88 279.749 278.491 277.983 279.021 276.171C279.293 275.237 280.377 273.309 280.097 272.302" stroke="white" stroke-width="3" stroke-linecap="round"/>
<path d="M253.798 326.857L240.907 311.49L262.761 300.239L273.107 287.883L280.519 271.174L292.389 285.963L279.56 311.072L253.798 326.857Z" fill="white" stroke="white"/>
</g>
<defs>
<clipPath id="clip0_3_62">
<rect width="500" height="500" fill="white"/>
</clipPath>
</defs>
</svg>
